
<svg width="72" height="72" viewBox="0 0 72 72" fill="none" xmlns="http://www.w3.org/2000/svg">
<mask id="mask0" mask-type="alpha" maskUnits="userSpaceOnUse" x="0" y="0" width="72" height="72">
<rect width="72" height="72" fill="#C4C4C4"/>
</mask>
<g mask="url(#mask0)">
<mask id="mask1" mask-type="alpha" maskUnits="userSpaceOnUse" x="0" y="0" width="74" height="72">
<rect width="73.7129" height="72" fill="white"/>
</mask>
<g mask="url(#mask1)">
<path d="M43.1221 53.2695L49.8971 64.7154L53.1709 62.7354L54.3199 58.9448L47.0462 46.6413L43.1221 53.2695Z" fill="#D24D57"/>
<path d="M21.1922 7.94152L17.9944 10.6521L26.5798 25.1474L30.493 18.5298L22.6556 5.28387L21.1922 7.94152Z" fill="#D24D57"/>
<path d="M28.5637 43.3695L19.0244 59.4954L20.2168 63.7836L23.1437 65.806L36.8998 42.5436L40.8239 35.9048L56.0434 10.133L53.5177 6.70242L52.6613 5.50595L48.954 8.86242L28.5637 43.3695Z" fill="#D24D57"/>
<path d="M20.8888 2.27664L16.9646 8.92605H16.9755L4.94292 29.319L4.93208 29.3084L1.0188 35.9472L20.8888 69.6178L24.8129 62.9896L8.85621 35.9578L24.8129 8.92605H36.2275L40.1517 2.27664H20.8888Z" fill="#4573FF"/>
<path d="M48.9106 8.93667L64.8564 35.9578L48.9106 62.979H37.4959L33.5826 69.6179H52.8347L56.7588 62.979L68.7805 42.5967L72.7047 35.9684L68.7914 29.2873L56.748 8.92608L52.8455 2.27667L48.9106 8.93667Z" fill="#4573FF"/>
</g>
</g>
</svg>
